<?xml version="1.0" standalone="no"?>
<!DOCTYPE svg PUBLIC "-//W3C//DTD SVG 20010904//EN"
 "http://www.w3.org/TR/2001/REC-SVG-20010904/DTD/svg10.dtd">
<svg version="1.0" xmlns="http://www.w3.org/2000/svg"
 width="1000.000000pt" height="1000.000000pt" viewBox="0 0 1000.000000 1000.000000"
 preserveAspectRatio="xMidYMid meet">
<metadata>
Created by potrace 1.16, written by Peter Selinger 2001-2019
</metadata>
<g transform="translate(0.000000,1000.000000) scale(0.100000,-0.100000)"
fill="#000000" stroke="none">
<path d="M1340 8397 c-167 -47 -260 -213 -260 -464 0 -151 43 -267 131 -355
67 -67 125 -91 219 -92 43 0 90 5 110 13 103 42 181 133 215 253 37 127 17
331 -46 464 -68 144 -227 221 -369 181z"/>
<path d="M5310 8397 c-166 -47 -260 -215 -260 -465 0 -194 86 -355 228 -423
67 -33 188 -32 257 1 154 75 235 265 205 483 -22 159 -52 237 -123 314 -78 85
-200 120 -307 90z"/>
<path d="M8615 8015 c-5 -2 -22 -6 -37 -9 -39 -9 -98 -64 -119 -111 -10 -22
-68 -177 -129 -345 -103 -280 -112 -310 -108 -362 3 -38 12 -67 28 -92 70
-102 232 -107 307 -10 14 19 80 181 146 361 101 274 122 337 121 383 0 68 -24
114 -79 152 -37 24 -105 42 -130 33z"/>
<path d="M9284 7532 c-18 -9 -90 -80 -161 -157 -72 -77 -192 -196 -268 -265
-76 -69 -147 -133 -158 -143 -45 -44 -61 -144 -33 -210 18 -43 77 -94 125
-107 65 -17 128 2 202 64 152 126 455 427 533 529 51 67 48 185 -5 244 -54 59
-170 81 -235 45z"/>
<path d="M1365 7061 c-84 -38 -174 -174 -209 -314 -9 -37 -26 -127 -36 -200
-52 -363 -67 -775 -51 -1375 13 -461 6 -804 -19 -959 -43 -264 -168 -491 -306
-559 -50 -24 -62 -26 -137 -22 -112 7 -152 29 -218 117 -57 76 -90 97 -145 88
-87 -14 -118 -67 -118 -198 2 -218 133 -445 305 -527 102 -49 187 -66 324 -65
148 0 240 23 375 90 175 87 348 287 476 549 132 271 182 521 240 1194 34 406
43 640 33 950 -20 653 -97 1041 -233 1174 -75 73 -194 97 -281 57z"/>
<path d="M5333 7060 c-129 -66 -209 -240 -247 -540 -50 -395 -61 -730 -46
-1320 15 -538 5 -872 -29 -1035 -44 -204 -118 -361 -213 -451 -73 -69 -126
-88 -226 -81 -107 7 -149 30 -212 116 -55 76 -90 97 -146 88 -84 -14 -119 -70
-118 -192 2 -224 132 -450 307 -534 100 -48 185 -65 322 -64 352 1 612 185
824 584 159 299 209 543 277 1359 49 579 31 1203 -46 1603 -67 346 -155 474
-334 484 -58 4 -79 0 -113 -17z"/>
<path d="M2699 7036 c-155 -55 -248 -224 -318 -576 -96 -485 -96 -1203 1
-1565 68 -255 190 -451 343 -554 205 -137 484 -144 693 -19 135 82 231 197
328 396 l60 124 53 -197 c85 -321 136 -428 235 -490 45 -27 57 -30 136 -30 79
0 91 3 136 30 89 56 121 138 143 370 23 242 34 619 35 1195 1 600 1 606 -21
676 -42 134 -128 232 -235 270 -24 8 -79 18 -124 21 -73 5 -86 3 -143 -22
-114 -52 -139 -88 -357 -535 -317 -647 -482 -965 -500 -965 -12 0 -41 119 -54
220 -6 44 -13 332 -16 640 -7 640 -12 746 -43 827 -27 69 -96 149 -154 177
-50 24 -141 28 -198 7z"/>
<path d="M6652 7029 c-126 -49 -206 -184 -277 -466 -56 -225 -83 -465 -92
-803 -14 -601 59 -986 238 -1246 137 -200 374 -307 611 -276 265 34 448 187
592 494 l52 112 33 -124 c82 -317 125 -433 190 -512 100 -119 314 -117 402 5
40 55 56 115 74 275 25 229 36 510 42 1132 7 679 3 730 -54 849 -72 150 -189
221 -368 221 -62 0 -153 -42 -202 -92 -52 -53 -119 -175 -263 -473 -162 -338
-403 -816 -455 -903 -20 -35 -41 -60 -45 -55 -11 12 -39 137 -50 225 -5 42
-12 335 -16 650 -7 658 -11 739 -47 820 -31 69 -99 145 -152 169 -54 25 -145
24 -213 -2z"/>
<path d="M9290 6540 c-310 -19 -332 -23 -387 -81 -91 -97 -46 -267 82 -309 53
-17 724 24 779 49 120 52 151 198 64 297 -64 73 -64 73 -538 44z"/>
<path d="M2944 3846 c-113 -22 -183 -45 -279 -92 -174 -85 -233 -147 -242
-253 -7 -80 14 -137 71 -189 65 -60 165 -80 241 -48 l34 15 16 -57 c104 -368
252 -705 422 -960 427 -641 1094 -992 1883 -992 1079 0 2068 677 2613 1790 49
102 91 187 93 189 12 15 200 -78 219 -109 14 -23 110 -60 156 -60 127 0 215
81 226 209 10 104 -29 169 -151 256 -179 126 -404 185 -704 185 -267 -1 -376
-24 -439 -92 -82 -88 -65 -244 37 -331 39 -33 59 -41 127 -49 22 -3 20 -8 -38
-113 -390 -706 -958 -1185 -1599 -1349 -669 -171 -1343 -13 -1788 418 -278
269 -461 605 -610 1119 l-20 67 51 0 c91 1 168 53 204 137 17 42 17 135 -1
177 -21 50 -72 102 -119 121 -57 24 -302 30 -403 11z"/>
</g>
</svg>
